<?xml version="1.0" encoding="UTF-8" standalone="no"?>
<!-- Created with Inkscape (http://www.inkscape.org/) -->

<svg
   xmlns:dc="http://purl.org/dc/elements/1.1/"
   xmlns:cc="http://creativecommons.org/ns#"
   xmlns:rdf="http://www.w3.org/1999/02/22-rdf-syntax-ns#"
   xmlns:svg="http://www.w3.org/2000/svg"
   xmlns="http://www.w3.org/2000/svg"
   xmlns:sodipodi="http://sodipodi.sourceforge.net/DTD/sodipodi-0.dtd"
   xmlns:inkscape="http://www.inkscape.org/namespaces/inkscape"
   version="1.1"
   id="svg2"
   xml:space="preserve"
   width="64"
   height="64"
   viewBox="0 0 64 64"
   sodipodi:docname="k.explorer-logo-with-circle_64.svg"
   inkscape:version="0.92.5 (2060ec1f9f, 2020-04-08)"><metadata
     id="metadata8"><rdf:RDF><cc:Work
         rdf:about=""><dc:format>image/svg+xml</dc:format><dc:type
           rdf:resource="http://purl.org/dc/dcmitype/StillImage" /><dc:title></dc:title></cc:Work></rdf:RDF></metadata><defs
     id="defs6"><clipPath
       clipPathUnits="userSpaceOnUse"
       id="clipPath18"><path
         d="M 0,180 H 180 V 0 H 0 Z"
         id="path16"
         inkscape:connector-curvature="0" /></clipPath></defs><sodipodi:namedview
     pagecolor="#ffffff"
     bordercolor="#666666"
     borderopacity="1"
     objecttolerance="10"
     gridtolerance="10"
     guidetolerance="10"
     inkscape:pageopacity="0"
     inkscape:pageshadow="2"
     inkscape:window-width="1920"
     inkscape:window-height="1056"
     id="namedview4"
     showgrid="false"
     inkscape:pagecheckerboard="true"
     inkscape:zoom="0.98333333"
     inkscape:cx="120"
     inkscape:cy="120"
     inkscape:window-x="0"
     inkscape:window-y="0"
     inkscape:window-maximized="1"
     inkscape:current-layer="g10"
     fit-margin-top="0"
     fit-margin-left="0"
     fit-margin-right="0"
     fit-margin-bottom="0" /><g
     id="g10"
     inkscape:groupmode="layer"
     inkscape:label="favicon"
     transform="matrix(1.3333333,0,0,-1.3333333,0,63.999999)"><g
       id="g917"
       transform="scale(0.26666667)"><circle
         r="90"
         transform="scale(1,-1)"
         cy="-90"
         cx="90"
         id="path840"
         style="fill:#ffffff;fill-opacity:1;stroke:none;stroke-width:1.35434508" /><g
         transform="matrix(0.90016743,0,0,0.90016743,8.9849089,8.9849193)"
         id="g12"><g
           clip-path="url(#clipPath18)"
           id="g14"><g
             transform="translate(155.2354,143.2461)"
             id="g20"><path
               inkscape:connector-curvature="0"
               id="path22"
               style="fill:#010101;fill-opacity:1;fill-rule:nonzero;stroke:none"
               d="m 0,0 c -2.228,-2.947 -12.649,-15.596 -27.355,-13.411 -44.067,6.55 -55.82,-13.793 -56.061,-37.598 -0.201,-19.903 -10.557,-28.811 -10.558,-28.812 -13.554,-12.514 -41.324,-1.286 -35.87,39.628 4.215,31.619 24.174,54.822 46.788,66.092 0.056,0.029 -1.481,0.961 -1.478,0.959 0.01,-0.004 0.986,1.827 0.852,1.789 -11.02,-3.097 -41.772,-13.078 -58.734,-52.792 -12.397,-29.027 -8.061,-56.913 9.899,-73.972 10.13,-9.623 22.723,-19.211 48.865,-16.071 0.024,0.002 0.308,-10.254 -24.773,-11.582 -0.096,-0.005 -0.17,-0.046 -0.223,-0.101 0.629,-0.377 1.264,-0.744 1.904,-1.105 21.059,-7.385 35.19,5.485 43.987,18.599 0.008,0.011 13.403,-12.524 2.353,-28.48 -0.127,-0.184 0.007,-0.437 0.23,-0.428 3.656,0.156 7.262,0.509 10.805,1.043 C -10.423,-128.746 19,-94.489 19,-53.354 19,-33.116 11.875,-14.542 0,0" /></g><g
             transform="translate(107.6377,160.6699)"
             id="g24"><path
               inkscape:connector-curvature="0"
               id="path26"
               style="fill:#d6151a;fill-opacity:1;fill-rule:evenodd;stroke:none"
               d="m 0,0 c 0,7.383 -5.986,13.369 -13.369,13.369 -7.383,0 -13.37,-5.986 -13.37,-13.369 0,-7.384 5.987,-13.37 13.37,-13.37 C -5.986,-13.37 0,-7.384 0,0" /></g><g
             transform="translate(96.1592,86.1211)"
             id="g28"><path
               inkscape:connector-curvature="0"
               id="path30"
               style="fill:#ffffff;fill-opacity:1;fill-rule:evenodd;stroke:none"
               d="m 0,0 c 0,1.125 -0.912,2.038 -2.038,2.038 -1.126,0 -2.038,-0.913 -2.038,-2.038 0,-1.126 0.912,-2.038 2.038,-2.038 C -0.912,-2.038 0,-1.126 0,0" /></g></g></g></g></g></svg>