<?xml version="1.0" encoding="UTF-8" standalone="no"?>
<!-- Created with Inkscape (http://www.inkscape.org/) -->

<svg
   xmlns:dc="http://purl.org/dc/elements/1.1/"
   xmlns:cc="http://creativecommons.org/ns#"
   xmlns:rdf="http://www.w3.org/1999/02/22-rdf-syntax-ns#"
   xmlns:svg="http://www.w3.org/2000/svg"
   xmlns="http://www.w3.org/2000/svg"
   xmlns:sodipodi="http://sodipodi.sourceforge.net/DTD/sodipodi-0.dtd"
   xmlns:inkscape="http://www.inkscape.org/namespaces/inkscape"
   width="1600"
   height="1600"
   viewBox="0 0 423.33333 423.33334"
   version="1.1"
   id="svg8"
   >
  <defs
     id="defs2" />
  <sodipodi:namedview
     id="base"
     pagecolor="#000000"
     bordercolor="#666666"
     borderopacity="1.0"
     inkscape:pageopacity="0"
     inkscape:pageshadow="2"
     inkscape:zoom="0.35"
     inkscape:cx="1527.9515"
     inkscape:cy="782.11757"
     inkscape:document-units="mm"
     inkscape:current-layer="layer1"
     showgrid="false"
     inkscape:window-width="1920"
     inkscape:window-height="1031"
     inkscape:window-x="0"
     inkscape:window-y="0"
     inkscape:window-maximized="1"
     units="px"
     fit-margin-top="0"
     fit-margin-left="0"
     fit-margin-right="0"
     fit-margin-bottom="0" />
  <metadata
     id="metadata5">
    <rdf:RDF>
      <cc:Work
         rdf:about="">
        <dc:format>image/svg+xml</dc:format>
        <dc:type
           rdf:resource="http://purl.org/dc/dcmitype/StillImage" />
        <dc:title />
      </cc:Work>
    </rdf:RDF>
  </metadata>
  <g
     inkscape:label="Layer 1"
     inkscape:groupmode="layer"
     id="layer1"
     transform="translate(167.27377,75.546221)">
    <g
       id="g1713">
      <ellipse
         ry="211.66666"
         rx="211.66667"
         cy="136.12044"
         cx="44.392899"
         id="path5122"
         style="opacity:0.93000034;fill:#ffffff;fill-opacity:1;stroke:none;stroke-width:0.26488012" />
      <ellipse
         ry="27.644016"
         rx="27.663132"
         cy="-32.875671"
         cx="29.626446"
         id="path5106"
         style="opacity:0.93000034;fill:#007eff;fill-opacity:1;stroke:none;stroke-width:0.2675361" />
      <path
         style="fill:#010102;stroke-width:0.35317349"
         d="m 51.95844,314.06116 c 0,-0.26023 0.502987,-1.25888 1.117738,-2.21924 2.998385,-4.68404 5.948178,-12.43582 7.045927,-18.51608 0.701919,-3.8878 0.610335,-13.8567 -0.163289,-17.77473 -2.304858,-11.67301 -8.614837,-22.56975 -17.190455,-29.68632 -3.680625,-3.05441 -7.604256,-5.63505 -8.212787,-5.40169 -0.248515,0.0953 -1.08478,1.7395 -1.858374,3.65378 -1.809462,4.47753 -5.09005,10.21206 -8.318853,14.5415 -3.176936,4.2599 -9.386197,10.46598 -13.578841,13.57186 -16.7644913,12.41905 -37.863846,16.48133 -58.056992,11.17778 -5.702508,-1.49771 -12.276703,-4.20423 -10.212137,-4.20423 0.268714,0 2.146145,0.25356 4.172075,0.56346 5.475735,0.83766 15.626543,0.50254 21.372845,-0.70556 12.661988,-2.66205 23.992935,-8.7631 32.85712684,-17.69162 3.82083996,-3.84857 9.38919116,-11.18218 8.87823236,-11.69278 -0.1149585,-0.11488 -1.7263602,0.44152 -3.5808983,1.23645 -11.0527795,4.73763 -21.4885149,7.00955 -33.7628249,7.35037 -25.012229,0.69451 -48.807875,-8.66183 -66.508478,-26.15087 -12.722925,-12.57084 -25.877335,-35.20008 -32.347955,-55.64743 -5.24234,-16.56598 -7.45084,-32.32853 -7.0223,-50.11964 0.23026,-9.55883 0.54915,-13.15039 1.86636,-21.02024 2.1758,-12.999573 5.61153,-24.484036 11.72384,-39.188705 2.0679,-4.974837 7.77272,-16.223567 10.65355,-21.006564 15.905557,-26.407882 37.801399,-48.1019889 63.440266,-62.855746 5.989689,-3.446742 19.435646,-9.809624 19.851466,-9.394092 0.23915,0.238975 -0.444452,1.423543 -2.410333,4.176718 -0.945716,1.324456 -1.71948,2.552438 -1.71948,2.728845 0,0.176407 0.67568,0.421006 1.5015,0.543541 2.782699,0.41291 6.271002,1.325188 6.271002,1.640022 0,0.171873 -2.066369,1.347244 -4.591941,2.611934 -23.315011,11.6750909 -43.262257,29.360431 -57.740367,51.192915 -4.567654,6.88786 -6.193387,9.683216 -9.675941,16.637187 -5.038074,10.060059 -8.861172,20.450243 -11.545542,31.377814 -3.07171,12.504364 -4.02629,19.882641 -4.2936,33.186841 -0.24007,11.94819 0.24775,18.35371 2.33984,30.72359 2.36634,13.99158 4.17061,20.18296 8.256197,28.33142 8.153921,16.2625 20.506375,28.38335 36.799005,36.10906 11.457242,5.43283 19.458319,6.65229 28.616942,4.36153 2.912779,-0.72855 9.466725,-3.99714 11.909145,-5.93933 2.686397,-2.13622 5.377661,-5.99557 8.51542,-12.2114 6.0078456,-11.9014 8.4171168,-24.09606 8.8964493,-45.02998 0.3391971,-14.81314 0.7622071,-18.13439 3.4089864,-26.76502 C 5.2714233,105.00107 17.682954,85.624662 33.233776,72.582722 40.073541,66.846445 50.081199,60.896763 58.494409,57.56494 73.394197,51.664286 90.993432,50.011594 108.03196,52.913004 l 3.96243,0.674743 2.60218,-1.402628 c 3.72927,-2.010148 5.72957,-2.613376 13.95144,-4.207281 13.18512,-2.556102 23.65718,-5.386146 31.69553,-8.56561 6.6485,-2.629729 15.9345,-7.64956 21.70834,-11.735097 1.25241,-0.886187 2.47138,-1.611249 2.70882,-1.611249 0.54913,0 5.16976,6.246642 9.45234,12.778646 15.27897,23.304165 24.77587,49.988521 27.99556,78.661692 0.85533,7.61744 1.0346,24.59067 0.3486,33.01031 -2.91529,35.78176 -16.17465,69.22576 -38.49233,97.08915 -16.46571,20.55726 -36.94852,37.00064 -60.46407,48.53999 -9.08281,4.45699 -14.18255,6.55789 -23.08168,9.5087 -14.225904,4.71705 -29.462445,7.63894 -45.19269,8.66646 -2.602374,0.16999 -3.26799,0.11711 -3.26799,-0.25967 z M 33.296809,152.67614 c 2.677574,-1.10052 4.719377,-2.77275 6.189271,-5.06898 1.609749,-2.51471 1.465468,-3.18356 -0.952867,-4.41718 -5.320067,-2.71386 -12.162726,-1.85607 -17.217434,2.15835 -1.016991,0.80769 -2.113618,1.87199 -2.436942,2.3651 -0.57292,0.87379 -0.557347,0.92835 0.612538,2.14616 1.160871,1.20842 3.798787,2.771 5.616602,3.32702 1.96518,0.6011 6.11355,0.3425 8.188832,-0.51047 z"
         id="path569"
         inkscape:connector-curvature="0" />
    </g>
  </g>
</svg>
