<?xml version="1.0" encoding="UTF-8" standalone="no"?>
<!-- Created with Inkscape (http://www.inkscape.org/) -->

<svg
   xmlns:dc="http://purl.org/dc/elements/1.1/"
   xmlns:cc="http://creativecommons.org/ns#"
   xmlns:rdf="http://www.w3.org/1999/02/22-rdf-syntax-ns#"
   xmlns:svg="http://www.w3.org/2000/svg"
   xmlns="http://www.w3.org/2000/svg"
   xmlns:sodipodi="http://sodipodi.sourceforge.net/DTD/sodipodi-0.dtd"
   xmlns:inkscape="http://www.inkscape.org/namespaces/inkscape"
   width="1600"
   height="1600"
   viewBox="0 0 423.33333 423.33334"
   version="1.1"
   id="svg8"
   inkscape:version="0.92.3 (2405546, 2018-03-11)"
   sodipodi:docname="safari-pinned-tab.svg"
   inkscape:export-filename="/home/klab/workspaces/klab-workspace/k.LAB/k.hub.frontend/src/statics/icons/apple-icon-180x180.png"
   inkscape:export-xdpi="10.8"
   inkscape:export-ydpi="10.8">
  <defs
     id="defs2" />
  <sodipodi:namedview
     id="base"
     pagecolor="#000000"
     bordercolor="#666666"
     borderopacity="1.0"
     inkscape:pageopacity="0"
     inkscape:pageshadow="2"
     inkscape:zoom="0.35"
     inkscape:cx="-82.857146"
     inkscape:cy="782.11757"
     inkscape:document-units="mm"
     inkscape:current-layer="layer1"
     showgrid="false"
     inkscape:window-width="1920"
     inkscape:window-height="1031"
     inkscape:window-x="0"
     inkscape:window-y="0"
     inkscape:window-maximized="1"
     units="px"
     fit-margin-top="0"
     fit-margin-left="0"
     fit-margin-right="0"
     fit-margin-bottom="0" />
  <metadata
     id="metadata5">
    <rdf:RDF>
      <cc:Work
         rdf:about="">
        <dc:format>image/svg+xml</dc:format>
        <dc:type
           rdf:resource="http://purl.org/dc/dcmitype/StillImage" />
        <dc:title></dc:title>
      </cc:Work>
    </rdf:RDF>
  </metadata>
  <g
     inkscape:label="Layer 1"
     inkscape:groupmode="layer"
     id="layer1"
     transform="translate(167.27377,75.546221)">
    <g
       id="g846"
       transform="matrix(1.0014678,0,0,1.0007758,269.75957,21.215884)"
       inkscape:export-xdpi="48.037239"
       inkscape:export-ydpi="48.037239">
      <ellipse
         ry="211.50258"
         rx="211.35645"
         cy="114.81548"
         cx="-225.03636"
         id="path5122"
         style="opacity:0.93000034;fill:#ffffff;fill-opacity:1;stroke:none;stroke-width:0.26458332" />
      <circle
         r="27.622587"
         cy="-54.049625"
         cx="-239.78117"
         id="path5106"
         style="opacity:0.93000034;fill:#d91f26;fill-opacity:1;stroke:none;stroke-width:0.26723632" />
      <path
         style="fill:#010102;stroke-width:0.35277778"
         d="m -217.48191,292.61826 c 0,-0.26003 0.50225,-1.2579 1.1161,-2.21752 2.99399,-4.68041 5.93946,-12.42618 7.0356,-18.50172 0.70089,-3.88479 0.60944,-13.84596 -0.16305,-17.76095 -2.30148,-11.66397 -8.60221,-22.55226 -17.16526,-29.66331 -3.67523,-3.05204 -7.59311,-5.63068 -8.20075,-5.3975 -0.24815,0.0952 -1.08319,1.73815 -1.85565,3.65094 -1.80681,4.47406 -5.08259,10.20415 -8.30666,14.53023 -3.17228,4.2566 -9.37244,10.45787 -13.55894,13.56134 -16.73992,12.40942 -37.80835,16.46855 -57.9719,11.16912 -5.69415,-1.49655 -12.25871,-4.20098 -10.19717,-4.20098 0.26832,0 2.143,0.25337 4.16596,0.56303 5.46771,0.83701 15.60364,0.50215 21.34152,-0.70502 12.64343,-2.65998 23.95777,-8.7563 32.80897,-17.6779 3.81524,-3.84559 9.37543,-11.17351 8.86522,-11.68372 -0.11479,-0.11479 -1.72383,0.44118 -3.57565,1.23549 -11.03658,4.73396 -21.45702,7.00412 -33.71334,7.34468 -24.97557,0.69397 -48.73634,-8.65512 -66.411,-26.1306 -12.70428,-12.5611 -25.83941,-35.17279 -32.30054,-55.60429 -5.23466,-16.55314 -7.43992,-32.30347 -7.01201,-50.08079 0.22992,-9.551422 0.54834,-13.140192 1.86362,-21.003942 2.17261,-12.9895 5.60331,-24.46506 11.70666,-39.15833 2.06487,-4.97098 7.76133,-16.21099 10.63793,-20.99028 15.88225,-26.38741 37.746,-48.0647 63.34729,-62.80702 5.98091,-3.44407 19.40716,-9.80202 19.82237,-9.38681 0.2388,0.23879 -0.4438,1.42244 -2.4068,4.17348 -0.94433,1.32343 -1.71696,2.55046 -1.71696,2.72673 0,0.17627 0.67469,0.42068 1.4993,0.54312 2.77862,0.41259 6.26181,1.32416 6.26181,1.63875 0,0.17174 -2.06334,1.3462 -4.58521,2.60991 -23.28084,11.66604 -43.19885,29.33767 -57.65574,51.15323 -4.56096,6.88252 -6.18431,9.67571 -9.66176,16.62429 -5.03069,10.05226 -8.84818,20.43439 -11.52862,31.35349 -3.06721,12.49467 -4.02039,19.86723 -4.28731,33.16111 -0.23972,11.938932 0.24739,18.339482 2.33641,30.699782 2.36288,13.98073 4.1645,20.16731 8.2441,28.30945 8.14197,16.2499 20.47632,28.36135 36.74507,36.08107 11.44045,5.42862 19.4298,6.64713 28.575,4.35815 2.90851,-0.72798 9.45285,-3.99404 11.89169,-5.93473 2.68246,-2.13456 5.36978,-5.99092 8.50294,-12.20193 5.99904,-11.89217 8.40478,-24.07738 8.88341,-44.99507 0.3387,-14.80166 0.76109,-18.12033 3.40399,-26.74427 6.60077,-21.538732 18.99411,-40.900122 34.52214,-53.931952 6.82974,-5.73183 16.82273,-11.6769 25.22361,-15.00614 14.87795,-5.89608 32.45139,-7.54749 49.46495,-4.64833 l 3.95662,0.67422 2.59836,-1.40154 c 3.72381,-2.00859 5.72118,-2.61135 13.931,-4.20402 13.16579,-2.55412 23.6225,-5.38197 31.64907,-8.55897 6.63876,-2.62769 15.91115,-7.64363 21.67653,-11.726 1.25057,-0.8855 2.46775,-1.61 2.70485,-1.61 0.54832,0 5.16218,6.2418 9.43848,12.76874 15.25658,23.2861 24.73956,49.94977 27.95453,78.60071 0.85408,7.611542 1.03308,24.571612 0.34809,32.984722 -2.91102,35.75402 -16.15094,69.1721 -38.43592,97.01389 -16.44157,20.54132 -36.89436,36.97196 -60.37545,48.50236 -9.06949,4.45354 -14.16176,6.55281 -23.04785,9.50133 -14.20505,4.71339 -29.41926,7.63302 -45.12645,8.65974 -2.59856,0.16986 -3.2632,0.11702 -3.2632,-0.25947 z m -18.63428,-161.25991 c 2.67365,-1.09967 4.71246,-2.7706 6.1802,-5.06505 1.60739,-2.51276 1.46332,-3.18109 -0.95147,-4.41376 -5.31227,-2.71175 -12.1449,-1.85463 -17.1922,2.15668 -1.0155,0.80706 -2.11052,1.87054 -2.43337,2.36327 -0.57208,0.87311 -0.55653,0.92763 0.61164,2.14449 1.15917,1.20748 3.79322,2.76885 5.60837,3.32444 1.9623,0.60064 6.10459,0.34224 8.17683,-0.51007 z"
         id="path569"
         inkscape:connector-curvature="0" />
    </g>
  </g>
</svg>
