<?xml version="1.0" encoding="UTF-8"?>
<svg xmlns="http://www.w3.org/2000/svg" xmlns:xlink="http://www.w3.org/1999/xlink" width="534pt" height="645pt" viewBox="0 0 534 645" version="1.1">
<g id="surface1">
<path style=" stroke:none;fill-rule:nonzero;fill:rgb(12.54902%,12.54902%,12.54902%);fill-opacity:1;" d="M 512.933594 508.304688 C 512.925781 508.296875 512.917969 508.289062 512.917969 508.28125 C 508.363281 503.144531 506.195312 493.621094 503.863281 483.472656 C 501.539062 473.332031 498.9375 462.398438 490.613281 455.308594 C 490.597656 455.292969 490.574219 455.28125 490.558594 455.265625 C 488.910156 453.824219 487.214844 452.609375 485.511719 451.597656 C 483.804688 450.585938 482.070312 449.757812 480.339844 449.105469 C 491.910156 414.785156 487.375 380.609375 475.6875 349.730469 C 461.355469 311.828125 436.328125 278.804688 417.210938 256.214844 C 395.8125 229.222656 374.886719 203.601562 375.300781 165.757812 C 375.9375 108 381.652344 0.890625 280.011719 0.75 C 275.878906 0.742188 271.566406 0.914062 267.074219 1.273438 C 153.496094 10.417969 183.621094 130.417969 181.933594 170.59375 C 179.859375 199.980469 173.902344 223.140625 153.691406 251.863281 C 129.953125 280.09375 96.515625 325.792969 80.683594 373.363281 C 73.214844 395.8125 69.660156 418.695312 72.9375 440.355469 C 71.910156 441.277344 70.933594 442.246094 69.996094 443.234375 C 63.03125 450.683594 57.878906 459.695312 52.140625 465.765625 C 46.777344 471.121094 39.140625 473.152344 30.742188 476.160156 C 22.34375 479.175781 13.125 483.613281 7.53125 494.355469 C 7.53125 494.355469 7.53125 494.363281 7.523438 494.363281 C 7.515625 494.378906 7.507812 494.398438 7.492188 494.414062 C 4.859375 499.328125 4.003906 504.628906 4.003906 510.007812 C 4.003906 514.980469 4.738281 520.019531 5.484375 524.871094 C 7.027344 534.964844 8.59375 544.511719 6.515625 550.980469 C -0.128906 569.152344 -0.984375 581.714844 3.699219 590.835938 C 8.390625 599.96875 18.03125 603.996094 28.925781 606.277344 C 50.722656 610.824219 80.234375 609.699219 103.492188 622.027344 L 105.496094 618.253906 L 103.515625 622.035156 C 128.414062 635.054688 153.660156 639.675781 173.796875 635.078125 C 188.40625 631.75 200.257812 623.046875 206.347656 609.667969 C 222.097656 609.59375 239.386719 602.917969 267.074219 601.394531 C 285.863281 599.878906 309.328125 608.070312 336.324219 606.570312 C 337.027344 609.496094 338.046875 612.316406 339.441406 614.992188 C 339.457031 615.015625 339.472656 615.042969 339.488281 615.066406 C 349.949219 635.992188 369.390625 645.5625 390.113281 643.925781 C 410.859375 642.292969 432.914062 630.058594 450.75 608.84375 L 447.480469 606.097656 L 450.773438 608.8125 C 467.769531 588.203125 495.976562 579.660156 514.6875 568.378906 C 524.042969 562.738281 531.625 555.675781 532.214844 545.414062 C 532.800781 535.164062 526.777344 523.671875 512.933594 508.304688 Z M 512.933594 508.304688 "/>
<path style=" stroke:none;fill-rule:nonzero;fill:rgb(100%,100%,100%);fill-opacity:1;" d="M 523.679688 544.925781 C 523.320312 551.257812 518.738281 555.960938 510.269531 561.058594 C 493.347656 571.265625 463.355469 580.148438 444.210938 603.34375 C 427.574219 623.136719 407.292969 634.003906 389.4375 635.414062 C 371.582031 636.824219 356.175781 629.414062 347.085938 611.183594 L 347.070312 611.144531 L 347.046875 611.097656 C 341.40625 600.375 343.753906 583.460938 348.5 565.613281 C 353.25 547.769531 360.074219 529.441406 360.988281 514.550781 L 360.988281 514.507812 C 361.949219 495.425781 363.023438 478.761719 366.222656 465.898438 C 369.433594 453.035156 374.480469 444.335938 383.421875 439.4375 C 383.839844 439.214844 384.253906 438.996094 384.664062 438.792969 C 385.679688 455.316406 393.863281 472.175781 408.320312 475.820312 C 424.148438 479.992188 446.953125 466.417969 456.585938 455.339844 C 458.511719 455.261719 460.386719 455.167969 462.210938 455.121094 C 470.660156 454.917969 477.742188 455.40625 484.988281 461.738281 L 485.007812 461.757812 L 485.03125 461.773438 C 490.597656 466.492188 493.242188 475.402344 495.539062 485.375 C 497.835938 495.359375 499.664062 506.226562 506.550781 513.972656 L 506.558594 513.980469 L 506.5625 513.996094 C 519.796875 528.675781 524.046875 538.589844 523.679688 544.925781 Z M 523.679688 544.925781 "/>
<path style=" stroke:none;fill-rule:nonzero;fill:rgb(100%,100%,100%);fill-opacity:1;" d="M 202.117188 591.710938 L 202.109375 591.757812 L 202.109375 591.808594 C 200.578125 611.863281 189.269531 622.785156 171.898438 626.753906 C 154.546875 630.71875 131.003906 626.769531 107.496094 614.476562 C 107.488281 614.476562 107.484375 614.46875 107.476562 614.46875 C 81.464844 600.691406 50.527344 602.0625 30.675781 597.914062 C 20.753906 595.84375 14.273438 592.726562 11.300781 586.933594 C 8.332031 581.136719 8.265625 571.035156 14.578125 553.808594 L 14.609375 553.730469 L 14.632812 553.65625 C 17.761719 544.019531 15.441406 533.472656 13.925781 523.574219 C 12.414062 513.683594 11.671875 504.675781 15.050781 498.402344 L 15.082031 498.34375 C 19.410156 490.003906 25.753906 487.019531 33.628906 484.199219 C 41.511719 481.371094 50.851562 479.152344 58.222656 471.757812 L 58.265625 471.71875 L 58.304688 471.683594 C 65.121094 464.488281 70.246094 455.464844 76.238281 449.070312 C 81.292969 443.667969 86.355469 440.089844 93.984375 440.039062 C 94.074219 440.046875 94.15625 440.046875 94.246094 440.039062 C 95.578125 440.046875 96.996094 440.160156 98.496094 440.390625 C 108.621094 441.921875 117.449219 449 125.953125 460.535156 L 150.511719 505.289062 L 150.515625 505.3125 L 150.53125 505.328125 C 157.066406 518.96875 170.863281 533.976562 182.558594 549.285156 C 194.25 564.585938 203.296875 579.953125 202.117188 591.710938 Z M 202.117188 591.710938 "/>
<path style=" stroke:none;fill-rule:nonzero;fill:rgb(100%,100%,100%);fill-opacity:1;" d="M 324.578125 174.515625 C 322.605469 170.65625 318.578125 166.980469 311.722656 164.167969 L 311.707031 164.160156 L 311.683594 164.152344 C 297.425781 158.046875 291.238281 157.613281 283.28125 152.4375 C 270.328125 144.113281 259.628906 141.195312 250.734375 141.234375 C 246.074219 141.246094 241.914062 142.074219 238.183594 143.363281 C 227.347656 147.089844 220.15625 154.867188 215.648438 159.136719 L 215.640625 159.140625 C 215.640625 159.148438 215.632812 159.148438 215.632812 159.15625 C 214.746094 159.996094 213.609375 160.761719 210.847656 162.789062 C 208.066406 164.820312 203.894531 167.878906 197.894531 172.378906 C 192.5625 176.378906 190.828125 181.582031 192.675781 187.679688 C 194.511719 193.777344 200.390625 200.8125 211.148438 206.894531 L 211.164062 206.910156 L 211.183594 206.917969 C 217.859375 210.839844 222.421875 216.128906 227.65625 220.335938 C 230.273438 222.433594 233.023438 224.308594 236.339844 225.726562 C 239.65625 227.144531 243.523438 228.105469 248.371094 228.390625 C 259.738281 229.050781 268.109375 225.636719 275.496094 221.40625 C 282.898438 217.183594 289.167969 212.015625 296.363281 209.683594 L 296.378906 209.675781 L 296.394531 209.671875 C 311.136719 205.066406 321.652344 195.789062 324.945312 186.976562 C 326.59375 182.566406 326.542969 178.378906 324.578125 174.515625 Z M 324.578125 174.515625 "/>
<path style=" stroke:none;fill-rule:nonzero;fill:rgb(12.54902%,12.54902%,12.54902%);fill-opacity:1;" d="M 287.167969 196.28125 C 275.4375 202.398438 261.734375 209.8125 247.15625 209.8125 C 232.582031 209.8125 221.070312 203.078125 212.789062 196.515625 C 208.648438 193.238281 205.289062 189.976562 202.753906 187.605469 C 198.355469 184.132812 198.882812 179.265625 200.691406 179.40625 C 203.71875 179.785156 204.175781 183.773438 206.085938 185.558594 C 208.664062 187.972656 211.898438 191.101562 215.8125 194.203125 C 223.640625 200.40625 234.082031 206.445312 247.15625 206.445312 C 260.203125 206.445312 275.4375 198.785156 284.738281 193.566406 C 290.003906 190.613281 296.710938 185.316406 302.179688 181.300781 C 306.367188 178.226562 306.210938 174.527344 309.667969 174.929688 C 313.125 175.332031 310.566406 179.023438 305.726562 183.25 C 300.890625 187.472656 293.316406 193.078125 287.167969 196.28125 Z M 287.167969 196.28125 "/>
<path style=" stroke:none;fill-rule:nonzero;fill:rgb(100%,100%,100%);fill-opacity:1;" d="M 466.792969 446.601562 C 465.164062 446.542969 463.558594 446.550781 462 446.585938 C 461.859375 446.59375 461.714844 446.59375 461.566406 446.59375 C 465.59375 433.875 456.683594 424.492188 432.9375 413.753906 C 408.316406 402.921875 388.695312 403.996094 385.378906 425.96875 C 385.171875 427.117188 384.996094 428.296875 384.871094 429.480469 C 383.023438 430.125 381.179688 430.933594 379.320312 431.949219 C 367.761719 438.277344 361.449219 449.753906 357.9375 463.839844 C 354.433594 477.910156 353.421875 494.910156 352.460938 514.027344 C 352.460938 514.035156 352.460938 514.035156 352.460938 514.042969 C 351.871094 523.652344 347.910156 536.65625 343.90625 550.425781 C 303.570312 579.203125 247.589844 591.667969 200.054688 559.222656 C 196.835938 554.128906 193.140625 549.082031 189.335938 544.101562 C 186.90625 540.925781 184.410156 537.765625 181.933594 534.648438 C 186.808594 534.652344 190.957031 533.851562 194.308594 532.335938 C 198.480469 530.4375 201.40625 527.410156 202.859375 523.507812 C 205.753906 515.714844 202.84375 504.722656 193.566406 492.160156 C 184.289062 479.601562 168.578125 465.4375 145.492188 451.277344 C 145.492188 451.277344 145.492188 451.277344 145.492188 451.269531 C 128.527344 440.714844 119.046875 427.785156 114.609375 413.746094 C 110.160156 399.699219 110.78125 384.511719 114.210938 369.519531 C 120.78125 340.742188 137.65625 312.75 148.425781 295.1875 C 151.320312 293.054688 149.460938 299.144531 137.519531 321.316406 C 126.824219 341.582031 106.824219 388.351562 134.203125 424.863281 C 134.941406 398.878906 141.140625 372.382812 151.558594 347.597656 C 166.734375 313.207031 198.464844 253.5625 200.984375 206.027344 C 202.289062 206.972656 206.753906 209.984375 208.738281 211.117188 C 208.746094 211.125 208.746094 211.125 208.753906 211.125 C 214.574219 214.554688 218.949219 219.5625 224.609375 224.117188 C 230.289062 228.675781 237.375 232.613281 248.085938 233.234375 C 249.113281 233.296875 250.117188 233.324219 251.101562 233.324219 C 262.140625 233.324219 270.75 229.726562 277.921875 225.625 C 285.714844 221.167969 291.9375 216.234375 297.839844 214.3125 C 297.847656 214.304688 297.855469 214.304688 297.863281 214.304688 C 310.335938 210.40625 320.242188 203.503906 325.882812 195.464844 C 335.574219 233.65625 358.101562 288.816406 372.585938 315.734375 C 380.289062 330.015625 395.601562 360.359375 402.21875 396.921875 C 406.410156 396.796875 411.03125 397.402344 415.972656 398.671875 C 433.277344 353.8125 401.304688 305.503906 386.679688 292.050781 C 380.777344 286.320312 380.492188 283.753906 383.421875 283.875 C 399.277344 297.90625 420.105469 326.113281 427.679688 357.960938 C 431.136719 372.480469 431.875 387.75 428.167969 402.816406 C 429.976562 403.566406 431.820312 404.386719 433.6875 405.269531 C 461.460938 418.792969 471.726562 430.550781 466.792969 446.601562 Z M 466.792969 446.601562 "/>
<path style=" stroke:none;fill-rule:nonzero;fill:rgb(100%,100%,100%);fill-opacity:1;" d="M 325.882812 130.523438 C 325.941406 138.089844 324.636719 144.53125 321.765625 151.109375 C 320.128906 154.859375 318.25 158.011719 315.992188 160.738281 C 315.226562 160.371094 314.429688 160.019531 313.605469 159.683594 C 310.746094 158.460938 308.21875 157.453125 305.957031 156.601562 C 303.691406 155.746094 301.921875 155.160156 300.097656 154.53125 C 301.417969 152.933594 304.023438 151.050781 304.988281 148.6875 C 306.460938 145.125 307.179688 141.644531 307.316406 137.5 C 307.316406 137.332031 307.367188 137.191406 307.367188 136.996094 C 307.449219 133.019531 306.925781 129.625 305.761719 126.144531 C 304.546875 122.492188 303 119.867188 300.765625 117.683594 C 298.523438 115.5 296.289062 114.511719 293.605469 114.421875 C 293.476562 114.414062 293.355469 114.414062 293.230469 114.414062 C 290.710938 114.421875 288.519531 115.289062 286.253906 117.179688 C 283.875 119.167969 282.113281 121.710938 280.644531 125.25 C 279.183594 128.789062 278.460938 132.300781 278.320312 136.472656 C 278.296875 136.636719 278.296875 136.777344 278.296875 136.941406 C 278.246094 139.238281 278.394531 141.339844 278.746094 143.378906 C 273.585938 140.804688 266.984375 138.929688 262.425781 137.84375 C 262.164062 135.871094 262.011719 133.835938 261.96875 131.707031 L 261.96875 131.128906 C 261.886719 123.585938 263.125 117.113281 266.027344 110.542969 C 268.929688 103.964844 272.519531 99.238281 277.574219 95.390625 C 282.636719 91.550781 287.609375 89.789062 293.496094 89.730469 L 293.773438 89.730469 C 299.535156 89.730469 304.460938 91.425781 309.523438 95.09375 C 314.664062 98.828125 318.367188 103.492188 321.351562 110.015625 C 324.277344 116.378906 325.6875 122.59375 325.832031 129.96875 C 325.828125 130.164062 325.828125 130.328125 325.882812 130.523438 Z M 325.882812 130.523438 "/>
<path style=" stroke:none;fill-rule:nonzero;fill:rgb(100%,100%,100%);fill-opacity:1;" d="M 238.824219 138.058594 C 238.066406 138.277344 237.328125 138.511719 236.601562 138.757812 C 232.476562 140.183594 229.203125 141.753906 226.039062 143.847656 C 226.34375 141.65625 226.390625 139.4375 226.148438 136.957031 C 226.128906 136.820312 226.128906 136.707031 226.128906 136.574219 C 225.796875 133.28125 225.101562 130.519531 223.9375 127.730469 C 222.699219 124.828125 221.3125 122.78125 219.488281 121.207031 C 217.839844 119.78125 216.28125 119.121094 214.554688 119.136719 C 214.382812 119.136719 214.203125 119.144531 214.023438 119.15625 C 212.085938 119.324219 210.480469 120.269531 208.960938 122.121094 C 207.445312 123.964844 206.449219 126.261719 205.726562 129.304688 C 205.007812 132.34375 204.820312 135.328125 205.121094 138.753906 C 205.121094 138.890625 205.148438 139.003906 205.148438 139.136719 C 205.480469 142.460938 206.148438 145.21875 207.332031 148.011719 C 208.546875 150.882812 209.957031 152.929688 211.78125 154.503906 C 212.085938 154.769531 212.386719 155.007812 212.6875 155.21875 C 210.796875 156.679688 209.527344 157.71875 207.96875 158.859375 C 206.96875 159.585938 205.785156 160.453125 204.40625 161.476562 C 201.398438 158.65625 199.050781 155.113281 196.996094 150.441406 C 194.566406 144.921875 193.265625 139.394531 192.878906 132.871094 L 192.878906 132.816406 C 192.515625 126.292969 193.15625 120.683594 194.949219 114.878906 C 196.746094 109.074219 199.148438 104.871094 202.636719 101.421875 C 206.113281 97.964844 209.625 96.226562 213.855469 96.007812 C 214.183594 95.992188 214.507812 95.984375 214.828125 95.984375 C 218.664062 95.992188 222.082031 97.265625 225.621094 100.09375 C 229.460938 103.164062 232.363281 107.085938 234.796875 112.613281 C 237.234375 118.140625 238.53125 123.667969 238.890625 130.191406 L 238.890625 130.246094 C 239.0625 132.984375 239.039062 135.5625 238.824219 138.058594 Z M 238.824219 138.058594 "/>
<path style=" stroke:none;fill-rule:nonzero;fill:rgb(12.54902%,12.54902%,12.54902%);fill-opacity:1;" d="M 258.066406 153.667969 C 258.550781 155.222656 261.058594 154.964844 262.507812 155.714844 C 263.78125 156.367188 264.804688 157.804688 266.234375 157.847656 C 267.601562 157.886719 269.726562 157.375 269.902344 156.019531 C 270.136719 154.230469 267.527344 153.09375 265.84375 152.4375 C 263.679688 151.59375 260.910156 151.164062 258.878906 152.292969 C 258.414062 152.554688 257.90625 153.160156 258.066406 153.667969 Z M 258.066406 153.667969 "/>
<path style=" stroke:none;fill-rule:nonzero;fill:rgb(12.54902%,12.54902%,12.54902%);fill-opacity:1;" d="M 243.242188 153.667969 C 242.757812 155.222656 240.246094 154.964844 238.796875 155.714844 C 237.523438 156.367188 236.5 157.804688 235.070312 157.847656 C 233.707031 157.886719 231.582031 157.375 231.402344 156.019531 C 231.167969 154.230469 233.78125 153.09375 235.460938 152.4375 C 237.625 151.59375 240.398438 151.164062 242.425781 152.292969 C 242.890625 152.554688 243.398438 153.160156 243.242188 153.667969 Z M 243.242188 153.667969 "/>
</g>
</svg>
