<?xml version="1.0" encoding="UTF-8" standalone="no"?>
<!-- Created with Inkscape (http://www.inkscape.org/) -->

<svg
   xmlns:dc="http://purl.org/dc/elements/1.1/"
   xmlns:cc="http://creativecommons.org/ns#"
   xmlns:rdf="http://www.w3.org/1999/02/22-rdf-syntax-ns#"
   xmlns:svg="http://www.w3.org/2000/svg"
   xmlns="http://www.w3.org/2000/svg"
   xmlns:sodipodi="http://sodipodi.sourceforge.net/DTD/sodipodi-0.dtd"
   xmlns:inkscape="http://www.inkscape.org/namespaces/inkscape"
   width="300"
   height="315.92258"
   viewBox="0 0 79.374998 83.587851"
   version="1.1"
   id="svg8"
   sodipodi:docname="klab-logo-300.svg"
   inkscape:version="0.92.3 (2405546, 2018-03-11)">
  <defs
     id="defs2" />
  <sodipodi:namedview
     id="base"
     pagecolor="#ffffff"
     bordercolor="#666666"
     borderopacity="1.0"
     inkscape:pageopacity="0.0"
     inkscape:pageshadow="2"
     inkscape:zoom="0.96019984"
     inkscape:cx="-86.377669"
     inkscape:cy="7.1105682"
     inkscape:document-units="mm"
     inkscape:current-layer="layer1"
     showgrid="false"
     inkscape:window-width="1920"
     inkscape:window-height="1027"
     inkscape:window-x="-8"
     inkscape:window-y="-8"
     inkscape:window-maximized="1"
     units="px"
     fit-margin-top="0"
     fit-margin-left="0"
     fit-margin-right="0"
     fit-margin-bottom="0" />
  <metadata
     id="metadata5">
    <rdf:RDF>
      <cc:Work
         rdf:about="">
        <dc:format>image/svg+xml</dc:format>
        <dc:type
           rdf:resource="http://purl.org/dc/dcmitype/StillImage" />
        <dc:title></dc:title>
      </cc:Work>
    </rdf:RDF>
  </metadata>
  <g
     inkscape:label="Layer 1"
     inkscape:groupmode="layer"
     id="layer1"
     transform="translate(-43.465574,-155.36309)">
    <path
       inkscape:connector-curvature="0"
       id="path3783"
       d="M -237.43204,129.43073 V -82.235935 H -25.765372 185.9013 V 129.43073 341.0974 H -25.765372 -237.43204 Z M -3.5403719,306.53379 c 36.1370599,-4.5478 69.5066399,-19.769 96.8374999,-44.17143 26.286392,-23.46988 45.396432,-55.06958 53.969642,-89.24226 6.59663,-26.29413 7.1852,-53.12461 1.74773,-79.672699 -4.52303,-22.08341 -13.70302,-44.174746 -26.02071,-62.618056 -3.58969,-5.37482 -8.32759,-11.818056 -8.69019,-11.818056 -0.15302,0 -2.24677,1.309687 -4.65277,2.910417 -14.019182,9.327056 -28.205102,14.648377 -50.043982,18.772124 -8.14132,1.537296 -12.87513,2.941782 -15.73077,4.667208 l -2.0845,1.259494 -4.60735,-0.753149 c -21.14222,-3.45604 -41.5415399,-0.160687 -59.24543,9.57065 -21.36108,11.741587 -37.42849,31.11107 -47.18569,56.882977 -1.97346,5.21254 -3.93023,11.77171 -4.63067,15.52222 -0.2899,1.55223 -0.61983,3.29848 -0.73318,3.88056 -0.11336,0.58208 -0.35402,6.53521 -0.53481,13.22917 -0.4803,17.78343 -1.76107,27.38025 -4.95052,37.09429 -2.36356,7.19862 -7.10485,16.19864 -10.3513,19.64907 -1.73527,1.84429 -5.178,4.17251 -8.3982,5.67945 -8.038648,3.76179 -16.459658,4.15752 -25.331558,1.19039 -19.90384,-6.65667 -36.09938,-20.86626 -45.36329,-39.80071 -4.06072,-8.29968 -5.60748,-13.60798 -8.06929,-27.69305 -5.72716,-32.76742 -1.51903,-64.265041 12.46633,-93.309722 14.70662,-30.542597 38.67237,-54.9126175 68.905878,-70.068208 2.46661,-1.236479 4.14193,-2.280507 4.06105,-2.530779 -0.0757,-0.234307 -1.74591,-0.749056 -3.7115,-1.143889 -1.9656,-0.394828 -3.6772,-0.821256 -3.80356,-0.947617 -0.12636,-0.126362 0.73908,-1.630123 1.9232,-3.341691 2.34243,-3.385839 2.6295,-4.185729 1.35919,-3.787139 -2.8581,0.89677 -14.429898,6.540908 -20.221198,9.862868 -23.36333,13.401489 -45.01569,34.333512 -60.01845,58.021733 -10.16867,16.055552 -18.80353,36.312309 -23.00797,53.975001 -8.31572,34.934083 -4.12469,71.565043 11.83931,103.479163 10.82605,21.6427 23.44742,36.6438 39.11684,46.49222 8.04512,5.05646 19.36863,9.67908 28.74355,11.73405 19.53488,4.28202 39.020758,2.28267 57.590978,-5.90911 1.99433,-0.87975 1.74203,-0.12928 -1.35599,4.03347 -14.3974,19.3455 -39.275228,29.02862 -62.977188,24.51243 -4.23335,-0.80666 -3.81967,-0.13836 1.17796,1.90289 12.32748,5.03512 26.105928,6.25326 39.559358,3.4974 21.5032,-4.40478 40.19133,-19.91397 48.60639,-40.3382 0.74933,-1.8187 1.54326,-3.2261 1.85625,-3.29057 0.75124,-0.15472 6.18531,3.63099 9.29565,6.47592 17.6121601,16.10932 21.5193001,43.40848 9.13279,63.81075 -1.71804,2.82984 -1.87124,3.24393 -1.27386,3.44304 0.68157,0.22719 9.3122201,-0.42143 14.8043301,-1.11262 z M -44.638982,146.23886 c -0.97014,-0.24961 -2.31952,-0.73792 -2.99861,-1.08513 -1.4435,-0.73804 -3.88056,-2.98351 -3.88056,-3.57548 0,-0.84971 3.64618,-3.77213 6.26887,-5.02451 2.63206,-1.25685 2.86201,-1.30217 6.60752,-1.30217 3.53144,0 4.07846,0.0914 6.0803,1.01602 3.07919,1.42221 3.17049,1.59507 1.98904,3.76576 -2.62877,4.82993 -8.81169,7.55754 -14.06656,6.20551 z m 10.93611,-159.17615 c 5.31211,-1.43383 10.89463,-4.983607 14.27751,-9.07868 2.08236,-2.52076 4.6933,-7.579036 5.49967,-10.654685 1.39574,-5.32368 0.94478,-12.13098 -1.15032,-17.36446 -2.71655,-6.78582 -8.93027,-12.86915 -15.77752,-15.44645 -11.10559,-4.18013 -23.78564,-0.77649 -31.25606,8.3899 -6.46668,7.93478 -7.93406,19.45714 -3.66445,28.774385 3.79726,8.286458 11.11127,14.037808 20.07673,15.787286 3.0476,0.594695 9.03553,0.391361 11.99444,-0.407296 z"
       style="fill:#fdfdfd;stroke-width:0.35277778" />
    <g
       id="g4614"
       transform="matrix(0.22303754,0,0,0.22303754,88.856215,170.37347)">
      <path
         sodipodi:nodetypes="sssscccscs"
         style="fill:#da1f26;stroke-width:0.35277778"
         d="m -45.697322,-12.529994 c -5.18307,-1.0114 -9.61627,-3.226259 -13.50305,-6.746223 -9.1314,-8.269615 -11.61582,-21.638028 -6.09513,-32.797218 5.2524,-10.61687 17.35579,-16.85104 28.8436,-14.85665 6.0337,1.04751 10.35842,3.18126 14.68262,7.24419 5.97689,5.61575 9.05434,13.25966 8.59812,21.35637 -0.10978,1.94821 -0.44932,4.4947 -0.75453,5.65887 -0.80637,3.075649 -3.41731,8.133925 -5.49967,10.654685 -3.38288,4.095073 -8.9654,7.64485 -14.27751,9.07868 -2.95891,0.798657 -8.94684,1.001991 -11.99445,0.407296 z"
         id="path3781"
         inkscape:connector-curvature="0" />
      <path
         style="fill:#010102;stroke-width:0.35277778"
         d="m -18.357042,307.2283 c 0,-0.21156 0.79681,-1.70857 1.77069,-3.3267 3.46066,-5.75006 5.83086,-12.71852 6.7092101,-19.72535 0.53168,-4.24131 0.27736,-11.94132 -0.5297401,-16.03898 -2.0295,-10.30367 -7.63986,-20.44258 -15.25768,-27.57331 -3.24746,-3.03981 -8.89584,-7.06378 -9.91531,-7.06378 -0.40637,0 -0.86329,0.70161 -1.43589,2.20486 -0.46191,1.21267 -1.76855,4.04105 -2.90363,6.28528 -9.25317,18.29499 -26.19642,31.0723 -47.05293,35.48375 -4.21963,0.89253 -5.23448,0.97144 -12.7,0.98767 -8.511348,0.0183 -10.422908,-0.18538 -16.933328,-1.80594 -3.2021,-0.79703 -9.25873,-2.86533 -10.87813,-3.71479 -1.11671,-0.58575 -0.39022,-0.69458 1.88387,-0.28222 1.20533,0.21858 4.17112,0.52578 6.59064,0.6827 18.47613,1.19831 36.425378,-5.56438 49.517548,-18.65655 4.41171,-4.41171 9.63863,-11.29285 9.0359,-11.89559 -0.11314,-0.11313 -2.15688,0.58897 -4.54165,1.56024 -2.38478,0.97126 -5.60596,2.17535 -7.15818,2.67575 -25.44787,8.20389 -53.723008,4.70701 -76.275278,-9.43323 -8.50219,-5.33086 -16.86065,-12.79628 -22.68052,-20.25725 -26.90229,-34.48832 -37.68696,-78.23496 -29.95706,-121.516997 3.93469,-22.031551 15.34368,-48.93557 28.98038,-68.339907 14.64205,-20.8348805 34.52218,-39.323868 54.80521,-50.970114 8.14807,-4.678518 19.725258,-10.224347 20.853098,-9.989267 0.35117,0.0732 -0.14592,1.03689 -1.63343,3.166633 -1.17603,1.68378 -2.138228,3.228569 -2.138228,3.432863 0,0.387565 0.16451,0.434407 3.841528,1.093837 4.67967,0.83924 4.70187,0.768801 -1.20984,3.838522 -16.268848,8.447789 -30.634058,19.3068005 -42.222318,31.9168885 -23.38937,25.4517925 -37.15384,56.6699975 -40.15152,91.0648015 -0.84262,9.66796 -0.2628,26.00667 1.25191,35.27778 2.96971,18.1768 4.4501,23.57637 8.99502,32.80833 7.59159,15.42056 19.86782,27.79607 35.10182,35.38569 7.61626,3.79444 14.04389,5.86236 19.50261,6.27444 8.13204,0.61388 17.736888,-2.54131 23.574398,-7.7442 4.94078,-4.40365 10.56298,-15.63008 13.36669,-26.69067 2.0849,-8.22487 2.88588,-15.94809 3.3287,-32.09609 0.34282,-12.50171 0.67484,-15.26296 2.67319,-22.23187 6.42762,-22.415257 18.9772,-42.577545 34.74225,-55.817306 9.80972,-8.238366 23.18131,-15.275736 34.7292601,-18.277759 C 10.740388,44.432262 23.494518,43.891662 37.397468,46.221826 l 4.42535,0.741698 1.80992,-1.11366 c 3.21051,-1.975446 5.83275,-2.78342 14.95083,-4.606703 24.16329,-4.831778 37.01225,-9.607031 51.039802,-18.968678 2.39854,-1.600729 4.48056,-2.910416 4.62672,-2.910416 0.31374,0 5.41376,6.940426 8.42504,11.465278 26.06974,39.173714 35.52041,87.505645 26.17826,133.879165 -10.00838,49.6806 -40.36898,92.30503 -84.307652,118.36284 -21.33577,12.65315 -47.44384,21.20769 -71.9666699,23.58047 -9.4638501,0.91571 -10.9361101,0.99332 -10.9361101,0.57648 z m -17.4359,-161.80557 c 2.24525,-1.09939 4.84092,-3.71988 5.79461,-5.85003 0.82534,-1.84345 0.55723,-2.22873 -2.50836,-3.60448 -5.57058,-2.49993 -13.2406,-0.92633 -17.72478,3.63645 -1.3183,1.34141 -1.65878,1.90943 -1.48075,2.47036 0.27362,0.86211 3.0812,2.99731 5.00668,3.80767 3.16883,1.33363 7.63397,1.14542 10.9126,-0.45997 z"
         id="path3779"
         inkscape:connector-curvature="0" />
    </g>
  </g>
</svg>
