<?xml version="1.0" encoding="UTF-8" standalone="no"?>
<svg
   xmlns:dc="http://purl.org/dc/elements/1.1/"
   xmlns:cc="http://creativecommons.org/ns#"
   xmlns:rdf="http://www.w3.org/1999/02/22-rdf-syntax-ns#"
   xmlns:svg="http://www.w3.org/2000/svg"
   xmlns="http://www.w3.org/2000/svg"
   xmlns:sodipodi="http://sodipodi.sourceforge.net/DTD/sodipodi-0.dtd"
   xmlns:inkscape="http://www.inkscape.org/namespaces/inkscape"
   id="svg8"
   version="1.1"
   viewBox="0 0 447.29752 449.99817"
   height="449.99817"
   width="447.29752"
   sodipodi:docname="aries_font.svg"
   inkscape:version="0.92.3 (2405546, 2018-03-11)">
  <sodipodi:namedview
     pagecolor="#ffffff"
     bordercolor="#666666"
     borderopacity="1"
     objecttolerance="10"
     gridtolerance="10"
     guidetolerance="10"
     inkscape:pageopacity="0"
     inkscape:pageshadow="2"
     inkscape:window-width="1920"
     inkscape:window-height="1031"
     id="namedview849"
     showgrid="false"
     inkscape:zoom="0.52765029"
     inkscape:cx="222.29085"
     inkscape:cy="226.36521"
     inkscape:window-x="0"
     inkscape:window-y="0"
     inkscape:window-maximized="1"
     inkscape:current-layer="svg8"
     fit-margin-top="0"
     fit-margin-left="0"
     fit-margin-right="0"
     fit-margin-bottom="0" />
  <defs
     id="defs2" />
  <metadata
     id="metadata5">
    <rdf:RDF>
      <cc:Work
         rdf:about="">
        <dc:format>image/svg+xml</dc:format>
        <dc:type
           rdf:resource="http://purl.org/dc/dcmitype/StillImage" />
        <dc:title></dc:title>
      </cc:Work>
    </rdf:RDF>
  </metadata>
  <g
     transform="matrix(3.8026158,0,0,3.8026158,-190.0827,-179.83947)"
     id="aries"
     inkscape:label="aries_logo">
    <title
       id="title1413">Aries logo</title>
    <path
       d="m 146.44922,0 -8.47461,1.6894531 -8.47461,1.6914063 -9.25781,4.4726562 -9.25977,4.4707034 -7.74023,7.724609 -7.74219,7.722656 -3.775391,6.5 -3.77539,6.5 -2.595703,8 -2.595704,8 -0.501953,10.048828 -0.5,10.048829 2.111329,8.451171 2.109374,8.451172 3.746094,7.499996 3.744141,7.5 9.017583,9.05274 9.01562,9.05078 6,3.11328 6,3.11328 6.5,2.03516 6.5,2.03516 2.5,0.41406 2.5,0.41406 8.99805,0.11914 h 0.002 l 8.99805,0.11914 7,-1.46094 7,-1.46093 9.36523,-4.62305 9.36524,-4.62305 8.2832,-8.2832 8.28516,-8.28516 4.62304,-9.36523 4.62305,-9.365236 1.45898,-7 1.46094,-7 0.0117,-7.5 0.0117,-7.5 -1.99024,-8.298828 -1.99023,-8.298828 -2.94336,-5.935547 -2.94531,-5.935547 -3.02344,-4.394531 -3.02344,-4.394531 -6.55664,-6.007813 -6.55859,-6.009765 L 185.22852,8.9824219 178.5,5.46875 171.50586,3.328125 164.51172,1.1855469 155.48047,0.59375 Z m 62.82031,2.0039062 -4.60937,0.6914063 -4.60938,0.6914063 6.56836,6.1464843 6.56836,6.1445309 4.28906,6.046875 4.28711,6.046875 3.00391,6 3.00195,6 2.09961,6.800782 2.09766,6.800781 1.14648,8.949219 0.54102,4.220703 0.0391,0.787109 0.29687,6.06836 -0.91211,7.123046 -1.18359,9.25 -2.96094,8.851563 -2.96289,8.849613 -4,6.84961 -4,6.84961 -1.10156,0.68164 -1.10156,0.67968 0.93164,0.93164 69.43164,69.4375 0.46484,0.4668 69.89844,69.90234 h 0.4043 0.28515 0.11914 0.56836 l 11.31446,-9.20117 11.31445,-9.20117 12.54297,-12.54883 12.54101,-12.54883 6.62696,-8.53906 6.625,-8.53906 4.95703,-7.99219 4.95703,-7.99023 3.04297,-6.0293 3.04297,-6.0293 1.58203,-1.3125 1.58203,-1.3125 v -1.91992 -1.91992 l -4.54102,-13.5918 -4.54101,-13.59375 -4.84375,-10.26757 -4.84375,-10.26954 -5.65039,-9.59961 -5.64844,-9.59765 L 400.2168,91.019531 392.5,80.771484 382.89844,70.828125 379.5,67.03125 377.7168,65.462891 371.6543,59.185547 362.57617,51.841797 353.5,44.498047 343.49219,37.970703 333.48633,31.441406 321.49219,25.466797 309.5,19.492188 299.72266,15.855469 289.94531,12.21875 280.72266,9.7363281 271.5,7.2519531 260,5.1699219 248.5,3.0878906 l -16.4082,-0.453125 -8.28516,-0.5898437 -4.00976,0.25 z M 69.431641,62.271484 l -5.078125,5.25 -5.078125,5.25 -7.261719,8.5 -7.263672,8.5 -7.929688,11.972656 -7.93164,11.9707 -6.390625,13.0293 -6.388672,13.02734 -3.917969,11.5 -3.9199216,11.5 -2.6171875,11 -2.6171875,11 L 1.5175781,197.76562 0,210.75977 v 13.79492 13.79687 l 1.0546875,9.70899 1.0546875,9.71093 2.453125,12.26563 2.4550781,12.26562 4.1640629,12.54688 4.166015,12.54492 7.076172,14.18945 7.076172,14.1875 6.5,0.79102 6.5,0.78906 19.294922,0.59375 2.705078,0.17774 2.431641,-0.0195 23.568359,0.72265 19.5,-0.29883 19.5,-0.30078 13.25,-0.58008 4.67773,-0.20507 4.07227,-0.0332 0.42383,-0.16406 L 156,337.06641 v -90.75977 -90.75976 l -1,-0.082 v -0.19336 h -2.39453 l -5.19922,-0.42187 -8.5957,-0.69727 -8.60547,-2.49414 -8.60547,-2.49414 -7.55078,-3.93359 -7.04688,-3.67383 -1.09375,-0.77539 -5.46484,-4.74805 -6.056641,-5.26172 -4.44336,-5.27343 -4.443359,-5.27344 -4.150391,-7.0293 -4.148437,-7.03125 -2.580078,-8.19531 -2.580078,-8.197266 -1.125,-7.429687 L 70,76.302734 v -4.314453 -0.373047 l 0.193359,-3.023437 0.402344,-6.320313 H 70.013672 Z M 184,130.77734 v 101.74805 0.57813 101.16796 0.16016 l 0.82422,-0.16016 h 2.11523 2.9375 l 14.77539,-2.54296 14.77539,-2.54297 12.22852,-2.99024 12.23047,-2.99219 11.20508,-3.54687 11.20508,-3.54883 5.20898,-2.22461 1.99414,-0.67578 2.69922,-1.32812 0.31836,-0.13672 10.2207,-4.36719 10.38086,-5.65234 2.78906,-1.51954 1.5918,-0.7832 1.57227,-0.93945 4.42773,-2.41211 10.625,-6.38672 10.625,-6.38672 0.74219,-0.60742 1.00781,-0.60352 0.91992,-0.875 L 332,280.86133 v -0.20703 l 0.18555,-0.17578 0.86133,-0.70704 -74.52344,-74.49609 z m 259.97266,105.99414 -0.42969,0.5 H 443.5 l -0.006,-0.0176 -0.0137,0.0176 h -0.26367 l -7.13086,8.39844 -3.90625,4.60352 -10.58594,10.53125 -9.42187,9.37304 -3.20508,3.07618 -8.73828,7.25976 -8.74024,7.25781 -2.9375,2.29688 -1.29687,1.01367 -1.71875,1.20313 0.0781,0.0781 16.89453,16.91602 0.0371,0.0391 0.0664,0.0664 11.43359,11.44531 4.45117,4.45703 0.30079,0.30273 0.20312,0.20313 0.22656,0.22656 0.14258,0.14258 0.10938,0.10937 h 0.32421 0.29297 0.0332 0.58593 l 4.29688,-9.75 4.29687,-9.75 3.33789,-9.80273 3.3379,-9.80273 1.94726,-7.69727 1.94531,-7.69727 0.65235,-3.51562 0.36132,-1.48438 0.32032,-2.19531 0.26172,-1.40625 1.59375,-8.60156 0.58203,-6.63281 0.35351,-2.41993 -0.006,-1.55859 0.58594,-6.68555 H 444 v -0.10351 l -0.0254,0.0312 z m -81.47461,72.51563 -6.14649,4.13477 -12.85156,8.05859 -10.54297,6.60937 -3.27539,1.96094 -15.18164,7.80664 -11.16016,5.74024 -5.48437,2.74414 -13.35547,5.28906 -11.94141,4.72852 -7.79297,2.48437 -8.10351,2.36133 -9.37891,2.73242 -7.80664,1.88477 -2.40429,0.58007 -8.91016,1.8086 -13.02344,2.64258 -4.74023,0.75586 -8.39844,1.14453 -11.5,1.57031 -3.25,0.51953 -3.25,0.51953 v 0.0957 l -0.0254,0.004 0.0254,3.31055 v 30.63476 0.29688 29.89648 l -0.0273,3.49024 0.0273,0.004 v 0.13868 0.8125 l 6.58203,0.74804 2.91797,0.51758 6.70312,0.57617 3.29688,0.375 3,0.35352 3,0.35547 3.96094,0.0547 1.03906,0.0899 1.53516,-0.0527 3.96484,0.0547 10.5,0.14648 11.5,-1.05078 11.5,-1.04882 12.34766,-2.47266 12.34765,-2.47266 11.15235,-3.57226 11.15234,-3.57032 1.96094,-0.84374 3.30859,-1.08204 5.77344,-2.82617 9.95703,-4.28125 6.5,-3.56054 3.63867,-1.99219 1.86133,-0.91211 0.88672,-0.59375 0.11328,-0.0625 9.57031,-6.25391 9.57031,-6.25586 2.47852,-1.99609 1.38086,-0.92578 3.39844,-2.92383 4.21484,-3.39453 0.38672,-0.28711 0.21875,-0.2207 6.91797,-6.19141 7.29297,-6.27344 1.55078,-1.80859 6.94922,-7.97461 3.38867,-3.89258 0.75391,-0.75391 0.62695,-0.83007 2.83398,-3.25391 1.54688,-2.06445 0.91992,-1.07227 2.31641,-3.24414 4.14648,-5.53516 -0.11523,-0.11523 0.0234,-0.0312 -21.1875,-21.16992 -4.55078,-4.54688 -16.54883,-16.57031 -0.0215,0.0137 z M 156,377.00977 l -3.75,0.62695 -3.48828,0.58398 -1.92383,0.0684 -41.13086,0.64258 -21.771483,0.33984 H 62.583984 l 0.06641,0.0684 H 62.5 l 1.414062,1.30078 0.490235,0.50586 2.302734,2.38868 3.792969,3.93554 0.238281,0.19922 0.761719,0.78516 4.894531,3.96289 3.556641,2.98437 9.451172,7.93164 9.548828,6.35157 9.548828,6.35351 2.55664,1.36524 1.44336,0.9414 4.64258,2.3086 1.23437,0.6582 9.87891,5.27344 4.08789,1.625 0.24219,0.12109 5.75195,2.26367 2.03906,0.81055 12.12305,4.82031 1.75,0.0234 v -0.002 l 0.084,0.002 0.66602,0.0234 v -0.0156 l 1,0.0137 v -29.15625 -0.47461 -28.68359 z"
       style="fill:#000000;stroke-width:1.00000012"
       transform="matrix(0.26458333,0,0,0.26458333,49.987353,47.293622)"
       id="path840"
       inkscape:connector-curvature="0" />
  </g>
</svg>
